<?xml version="1.0" encoding="UTF-8"?>
<!DOCTYPE svg PUBLIC "-//W3C//DTD SVG 1.1//EN" "http://www.w3.org/Graphics/SVG/1.1/DTD/svg11.dtd">
<!-- Creator: CorelDRAW 2021 (64-Bit) -->
<svg xmlns="http://www.w3.org/2000/svg" xml:space="preserve" width="0.130953in" height="0.1475in" version="1.1" style="shape-rendering:geometricPrecision; text-rendering:geometricPrecision; image-rendering:optimizeQuality; fill-rule:evenodd; clip-rule:evenodd"
viewBox="0 0 7.58 8.53"
 xmlns:xlink="http://www.w3.org/1999/xlink"
 xmlns:xodm="http://www.corel.com/coreldraw/odm/2003">
 <defs>
  <style type="text/css">
   <![CDATA[
    .fil7 {fill:black}
    .fil1 {fill:#035082}
    .fil3 {fill:#0A1435}
    .fil0 {fill:#376E11}
    .fil5 {fill:#732A74}
    .fil4 {fill:#940937}
    .fil2 {fill:#996206}
    .fil8 {fill:#FDFFFE}
    .fil6 {fill:#FEF6D9}
   ]]>
  </style>
 </defs>
 <g id="Layer_x0020_1">
  <metadata id="CorelCorpID_0Corel-Layer"/>
  <path class="fil0" d="M4.04 5.67c0.11,0.03 0.36,0.17 0.46,0.16 0.08,-0.1 0.42,-0.67 0.53,-0.83 0.38,-0.58 0.76,-1.02 1.42,-1.32 0.16,-0.07 0.83,-0.38 0.87,-0.49 -0.4,-0 -1.81,0.43 -2.04,0.45 -0.02,-0.14 0,-0.68 0.01,-0.83 0.03,-0.43 0.02,-1.15 0.05,-1.66l0.01 -0.83c-0.1,0.07 -0.44,0.98 -0.5,1.15 -0.22,0.64 -0.39,1.3 -0.53,1.98 -0.04,0.22 -0.08,0.47 -0.13,0.69 -0.04,0.2 -0.17,1.35 -0.16,1.53z"/>
  <path class="fil1" d="M2.42 3.63c-0.12,-0 -0.78,-0.18 -0.97,-0.22 -0.33,-0.07 -0.71,-0.16 -1.05,-0.17 0.03,0.07 0.11,0.1 0.19,0.15 0.07,0.04 0.14,0.07 0.22,0.11 0.47,0.25 0.76,0.29 1.25,0.71 0.39,0.34 0.71,0.85 0.99,1.31 0.04,0.06 0.09,0.14 0.12,0.21 0.08,-0 0.46,-0.1 0.52,-0.13 0.04,-0.43 -0.35,-2.36 -0.49,-2.85 -0.07,-0.23 -0.11,-0.43 -0.18,-0.65 -0.09,-0.31 -0.51,-1.65 -0.74,-1.77l0.13 3.31z"/>
  <path class="fil2" d="M3.14 0.68c-0.07,-0.03 -0.2,-0.16 -0.25,-0.2 -0.07,-0.05 -0.19,-0.15 -0.27,-0.16 0.03,0.12 0.17,0.28 0.2,0.4 0.11,0.1 0.51,1.12 0.57,1.38 0.07,0.28 0.13,0.52 0.18,0.8 0.04,0.2 0.13,0.64 0.21,0.77 0.06,-0.05 0.1,-0.33 0.13,-0.44 0.24,-0.88 0.23,-1.28 0.67,-2.17 0.08,-0.15 0.36,-0.65 0.38,-0.75 -0.17,0.03 -0.57,0.39 -0.67,0.49 -0.17,0.17 -0.26,0.28 -0.39,0.48 -0.03,0.05 -0.07,0.15 -0.1,0.18 -0.17,-0.16 -0.09,-0.27 -0.57,-0.69 -0.02,-0.01 -0.04,-0.03 -0.05,-0.04l-0.04 -0.05z"/>
  <path class="fil1" d="M1.32 1.59c-1.02,0.23 -0.64,1.54 0.21,1.4 0.36,-0.06 0.66,-0.35 0.6,-0.81 -0.05,-0.34 -0.39,-0.68 -0.81,-0.59z"/>
  <path class="fil0" d="M6.14 1.59c-0.19,0.05 -0.34,0.11 -0.45,0.26 -0.37,0.46 -0.01,1.24 0.68,1.14 0.36,-0.05 0.65,-0.39 0.59,-0.82 -0.05,-0.33 -0.39,-0.69 -0.81,-0.58z"/>
  <path class="fil3" d="M5.01 6.52c0.06,-0.01 0.5,-0.34 0.74,-0.45 0.44,-0.2 0.52,-0.09 0.86,-0.18l0.09 -0.03c0,-0 0.01,-0 0.01,-0.01l0.02 -0.01c-0.02,-0.01 -0,-0.01 -0.05,-0.02 -0.02,-0.01 -0.04,-0.01 -0.06,-0.01l-0.81 -0.13c-0.01,-0.13 0.57,-1.28 0.59,-1.45 -0.35,0.11 -1.06,1.22 -1.3,1.62 -0.12,0.21 -0.32,0.42 -0.08,0.67z"/>
  <path class="fil4" d="M2.04 5.66c-0.11,0.06 -0.87,0.13 -0.99,0.2l0.02 0.01c0.11,0.04 0.58,0.09 0.8,0.13 0.14,0.03 0.25,0.07 0.36,0.13 0.12,0.06 0.2,0.15 0.29,0.2 0.06,-0.04 0.18,-0.2 0.22,-0.25 0.07,-0.09 0.06,-0.11 -0.05,-0.31 -0.12,-0.22 -0.24,-0.39 -0.38,-0.58 -0.14,-0.19 -0.29,-0.37 -0.42,-0.53 -0.08,-0.09 -0.39,-0.44 -0.47,-0.47l0.62 1.49z"/>
  <path class="fil5" d="M2.41 7.21c0.08,-0.04 0.18,-0.27 0.24,-0.34 0.7,-1 1.9,-0.65 2.31,0.19 0.02,0.03 0.03,0.06 0.04,0.1 0.02,0.07 0.01,0.07 0.06,0.11 0.09,-0.4 -0.17,-0.79 -0.35,-0.98 -0.51,-0.54 -1.43,-0.53 -1.9,-0.04 -0.2,0.21 -0.41,0.57 -0.4,0.96z"/>
  <path class="fil2" d="M3.71 0.01c-0.23,0.06 -0.38,0.2 -0.35,0.48 0.03,0.23 0.23,0.37 0.5,0.33 0.51,-0.06 0.42,-0.95 -0.16,-0.81z"/>
  <path class="fil4" d="M0.98 4.84c-0.13,0.05 -0.23,0.14 -0.18,0.32 0.03,0.13 0.17,0.21 0.34,0.17 0.3,-0.07 0.19,-0.62 -0.16,-0.49z"/>
  <path class="fil3" d="M6.71 4.89c-0.37,0.08 -0.26,0.55 0.08,0.51 0.33,-0.04 0.27,-0.58 -0.08,-0.51z"/>
  <path class="fil6" d="M2.81 0.71c-0.03,-0.12 -0.17,-0.28 -0.2,-0.4 0.08,0.01 0.21,0.11 0.27,0.16 0.05,0.04 0.19,0.17 0.25,0.2 -0,-0.06 -0.05,-0.08 -0.11,-0.13 -0.18,-0.16 -0.14,-0.09 -0.24,-0.19 -0.03,-0.03 -0.14,-0.09 -0.2,-0.06 -0,0.09 0.03,0.12 0.09,0.21l0.11 0.21 0.03 -0.01z"/>
  <path class="fil7" d="M3.89 7.97c-0.02,-0.01 -0.01,0 -0.02,-0.02 -0.01,-0.01 -0.01,-0.02 -0.01,-0.04l-0.08 -0.36c-0.02,-0.12 0.02,-0.11 -0.28,-0.11l-0.11 0 0 1.08 0.28 0c0,-0.04 0,-0.63 0.02,-0.67 0,-0 0,-0.01 0,-0.01 0.05,0.08 0.09,0.54 0.14,0.68l0.11 -0 0.13 -0.65c0.01,-0.02 0,-0.01 0.02,-0.02l0 0.67 0.28 0c0,-0.34 0.01,-0.75 -0,-1.08l-0.36 -0c-0.05,0.09 -0.06,0.46 -0.12,0.52z"/>
  <path class="fil7" d="M-0 8.53l0.28 0c0.01,-0.12 -0.02,-0.63 0.01,-0.69 0.02,0.01 0.12,0.61 0.14,0.68l0.11 0c0.04,-0.08 0.1,-0.63 0.14,-0.68 0.02,0.05 -0,0.57 0.01,0.69l0.28 -0c0.02,-0.12 0,-0.62 0,-0.81l-0.01 -0.27c-0.06,-0.02 -0.3,-0.02 -0.36,0 -0.03,0.07 -0.03,0.18 -0.05,0.26l-0.04 0.21c-0.02,0.06 0,0.03 -0.03,0.05 -0.04,-0.05 -0.11,-0.44 -0.12,-0.52l-0.36 -0 -0 1.08z"/>
  <path class="fil7" d="M5.94 8.52c0.12,0.02 0.32,0 0.45,0 0.11,0 0.09,0.01 0.17,-0.05 0.05,-0.04 0.1,-0.06 0.13,-0.1 0.02,-0.06 0.02,-0.69 0,-0.78 -0.04,-0.03 -0.08,-0.06 -0.12,-0.09 -0.07,-0.05 -0.06,-0.06 -0.17,-0.06 -0.13,0 -0.33,-0.01 -0.45,0l-0 1.08z"/>
  <path class="fil7" d="M2.26 7.92l-0.18 -0.47 -0.26 -0 -0 1.08 0.29 0 0 -0.51 0.21 0.51 0.25 0c0.01,-0.14 0.02,-0.99 -0,-1.09l-0.28 -0c-0.01,0.08 0.01,0.41 -0.01,0.45 -0.01,0.03 -0,0.01 -0.01,0.03z"/>
  <path class="fil7" d="M5.02 8.52l0.29 0 0 -0.5c0.03,0.01 0.18,0.43 0.21,0.5l0.25 0 0 -1.08 -0.29 -0 -0 0.5c-0.04,-0.04 -0.17,-0.41 -0.2,-0.49l-0.26 -0 -0 1.08z"/>
  <path class="fil7" d="M6.82 7.92c0.28,0.21 0.15,0.14 0.44,0.17l0 0.22 -0.13 -0 -0 -0.14 -0.31 -0 -0 0.2c0.24,0.17 0.15,0.15 0.38,0.15 0.2,0 0.14,0.02 0.37,-0.16l0 -0.33c-0.06,-0.04 -0.12,-0.09 -0.17,-0.12 -0.07,-0.05 -0.16,-0.04 -0.26,-0.05l-0.01 -0.22 0.13 -0 0 0.14 0.3 0c0,-0.19 0.04,-0.18 -0.18,-0.33 -0.05,-0.03 -0.09,-0.02 -0.16,-0.02 -0.05,0 -0.14,-0.01 -0.18,0 -0.04,0.01 -0.19,0.12 -0.21,0.15 -0.03,0.04 -0.02,0.26 -0.01,0.33z"/>
  <path class="fil7" d="M1.13 8.53c0.08,0.01 0.52,0.01 0.58,-0.01l0 -0.19 -0.26 -0.01 -0 -0.27 0.21 -0 0 -0.2 -0.21 -0 -0 -0.19c0.07,-0.01 0.19,0.02 0.25,-0.01l0.01 -0.19 -0.57 -0.01 -0 1.08z"/>
  <path class="fil7" d="M2.65 7.64l0.18 0.01 0 0.88 0.3 0c0.01,-0.1 0,-0.5 0,-0.66 0,-0.27 -0.04,-0.22 0.17,-0.23l0 -0.2 -0.66 -0 -0 0.2z"/>
  <polygon class="fil7" points="4.54,8.53 4.86,8.53 4.86,7.45 4.55,7.44 "/>
  <polygon class="fil8" points="6.25,8.32 6.38,8.32 6.38,7.65 6.25,7.65 "/>
 </g>
</svg>
